<svg id="Group_11427" data-name="Group 11427" xmlns="http://www.w3.org/2000/svg" xmlns:xlink="http://www.w3.org/1999/xlink" width="127.615" height="54.585" viewBox="0 0 127.615 54.585">
  <defs>
    <clipPath id="clip-path">
      <rect id="Rectangle_1977" data-name="Rectangle 1977" width="127.615" height="54.585" fill="none"/>
    </clipPath>
  </defs>
  <g id="Group_11426" data-name="Group 11426" transform="translate(0 0)" clip-path="url(#clip-path)">
    <path id="Path_4720" data-name="Path 4720" d="M49.9,43.662l.108,1.571a5.257,5.257,0,0,1,4.383-2.009A4.6,4.6,0,0,1,58.417,45.6l.317-.4a5.421,5.421,0,0,1,6.354-1.578,4.063,4.063,0,0,1,2.418,2.86,13.284,13.284,0,0,1,.373,2.723c.051,2.587.023,5.174.019,7.761a4.621,4.621,0,0,1-.09.628h-4.25c-.02-.38-.052-.71-.053-1.039,0-2.213,0-4.425,0-6.639a8.211,8.211,0,0,0-.027-.918,1.885,1.885,0,0,0-1.434-1.883,2.287,2.287,0,0,0-2.59,1.173,5.825,5.825,0,0,0-.433,2.068c-.055,2.041-.02,4.085-.02,6.127v1.089H54.716c-.025-.292-.07-.584-.071-.876-.006-2.043,0-4.086-.008-6.128a11.271,11.271,0,0,0-.1-1.627c-.183-1.2-.734-1.778-1.694-1.857a2.194,2.194,0,0,0-2.411,1.486,7.045,7.045,0,0,0-.289,2c-.037,1.94-.014,3.881-.014,5.821v1.179H45.812v-13.9Z" transform="translate(-10.175 -9.591)" fill="#d6d6d6"/>
    <path id="Path_4721" data-name="Path 4721" d="M82.619,56.317v7.871H78.337V43.667h3.894l.078,1.6c.175-.144.3-.228.4-.331,3.136-3.136,8.473-1.619,10.071,1.945a8.42,8.42,0,0,1-.942,8.868c-1.95,2.716-6.55,3.024-9.218.567m-.331-5.679a3.258,3.258,0,0,0,3.5,3.515,3.539,3.539,0,1,0-3.5-3.578v.063" transform="translate(-17.399 -9.603)" fill="#d6d6d6"/>
    <path id="Path_4722" data-name="Path 4722" d="M14.845,40.542a5.724,5.724,0,0,0-8.094.157c-.039.04-.077.081-.114.122a7.6,7.6,0,0,0,.246,9.668,5.348,5.348,0,0,0,7.561.061q.166-.165.317-.341a2.42,2.42,0,0,1,.266-.222c.275.192.552.377.822.573.96.695,1.917,1.393,2.942,2.139a7.624,7.624,0,0,1-2.933,2.548c-4.153,2.03-11.033,1.224-14.018-3.786A11.782,11.782,0,0,1,.93,41.508c1.18-3.765,5.046-6.62,9.763-6.779a9.151,9.151,0,0,1,7.182,2.561c.119.12.221.255.415.482l-3.445,2.77" transform="translate(-0.054 -7.707)" fill="#d6d6d6"/>
    <path id="Path_4723" data-name="Path 4723" d="M110.012,43.734c.449-.021.749-.046,1.049-.047,1.051,0,2.1,0,3.234,0V57.675H110.2V55.931a5.23,5.23,0,0,1-5.559,2.051,4.068,4.068,0,0,1-3.54-3.345,4.5,4.5,0,0,1-.173-1.005c-.013-3.267-.008-6.528-.008-9.87h4.194c.019.333.053.66.054.986.007,2.044,0,4.086.014,6.13A8.294,8.294,0,0,0,105.3,52.3a2.042,2.042,0,0,0,2.119,1.962l.077,0a2.2,2.2,0,0,0,2.361-1.954A10.351,10.351,0,0,0,110,50.476c.017-2.211.007-4.421.007-6.742" transform="translate(-22.415 -9.703)" fill="#d6d6d6"/>
    <path id="Path_4724" data-name="Path 4724" d="M34.67,48.629a2.34,2.34,0,0,0-1.513-2.194c-1.353-.584-2.676-.193-4.762,1.389-.185-.173-.389-.347-.569-.536-.567-.582-1.128-1.167-1.784-1.851.519-.345.948-.667,1.411-.933a9.641,9.641,0,0,1,7.5-.94,4.357,4.357,0,0,1,3.49,3.934c.17,1.585.229,3.189.269,4.782.044,1.732.01,3.466.01,5.28H34.757c-.022-.449-.042-.881-.065-1.348-.093.016-.21,0-.261.051a6.208,6.208,0,0,1-7.241,1,4.286,4.286,0,0,1-.146-7.2,8.336,8.336,0,0,1,3.967-1.186c1.182-.108,2.369-.163,3.661-.249m-.059,2.9c-.622,0-1.161-.012-1.7,0a4.135,4.135,0,0,0-1.111.1,6.658,6.658,0,0,0-1.853.76,1.315,1.315,0,0,0,.1,2.226,3.237,3.237,0,0,0,3.48-.164,2.493,2.493,0,0,0,1.089-2.929" transform="translate(-5.588 -9.594)" fill="#d6d6d6"/>
    <path id="Path_4725" data-name="Path 4725" d="M132.135,45.132,129.42,47.61c-.128-.1-.352-.3-.591-.467a2.92,2.92,0,0,0-2.425-.484,1.051,1.051,0,0,0-.953.923c-.062.6.334.874.811,1.018.649.2,1.314.345,1.977.489a6.17,6.17,0,0,1,3.478,1.562,4.226,4.226,0,0,1-1.833,6.768,10.875,10.875,0,0,1-7.215-.018,12.481,12.481,0,0,1-2.061-1.2l2.661-3.01c.282.241.527.456.778.664a3.618,3.618,0,0,0,3.366.678,1.377,1.377,0,0,0,.856-.827c.058-.225-.357-.707-.667-.861a9.573,9.573,0,0,0-1.745-.539c-.622-.17-1.262-.29-1.874-.491a3.722,3.722,0,0,1-2.878-2.986,4.266,4.266,0,0,1,1.556-4.278c2.379-1.923,7.24-1.7,9.475.581" transform="translate(-26.787 -9.608)" fill="#d6d6d6"/>
    <path id="Path_4726" data-name="Path 4726" d="M153.68,39.027c-3.267.05-6.534,0-9.912.03-1.011,1.735-2.048,3.487-3.053,5.253a1.686,1.686,0,0,0-.137.794c0,.518.025,1.145.61,1.25.248.044.684-.439.89-.771.808-1.3,1.574-2.626,2.323-3.962a1.318,1.318,0,0,1,1.3-.759c2.86.027,5.719.018,8.579.005a.992.992,0,0,1,1,.524c1.042,1.834,2.117,3.649,3.169,5.478a5.058,5.058,0,0,1,.27.769c-.373.039-.658.093-.944.094-2.792.013-5.583,0-8.374.04a1.347,1.347,0,0,1-1.371-.8c-.715-1.315-1.49-2.6-2.256-3.884-.2-.34-.458-.648-.688-.97a1.685,1.685,0,0,0-.632,2.3c.026.045.054.089.083.132.372.717.772,1.42,1.214,2.229h-5.087a2.532,2.532,0,0,1-.229-2.956c.876-1.576,1.771-3.141,2.708-4.681a1.238,1.238,0,0,1,.863-.545c3.1-.039,6.2-.026,9.294-.016a1.184,1.184,0,0,1,.405.172l-.029.28" transform="translate(-31.11 -8.567)" fill="#ee2c3c"/>
    <path id="Path_4727" data-name="Path 4727" d="M157.123,52.1c-.663,1.132-1.195,2.035-1.722,2.94A21.543,21.543,0,0,0,154,57.52a1.941,1.941,0,0,1-2.212,1.261c-2.549-.086-5.1-.027-7.656-.027h-1.275c.268-.53.418-.856.6-1.167.791-1.389,1.608-2.762,2.38-4.16a1.822,1.822,0,0,0-.457-2.536l0,0a10.7,10.7,0,0,0-.69.928c-.642,1.082-1.225,2.2-1.9,3.262-.634,1-1.419.993-2.047-.036-.957-1.566-1.858-3.166-2.769-4.758-.072-.125-.045-.306.108-.581a2.748,2.748,0,0,1,.478.487c.633,1.089,1.231,2.193,1.867,3.278.369.628.787,1.227,1.183,1.84a1.605,1.605,0,0,0,.737-2.148,1.709,1.709,0,0,0-.125-.212c-.5-.958-1.057-1.883-1.687-2.995,1.724,0,3.3-.013,4.879.017a.919.919,0,0,1,.545.376,3.716,3.716,0,0,1,.533.867,1.322,1.322,0,0,0,1.452.83c2.62-.04,5.241-.018,7.857-.012.36,0,.721.037,1.328.068" transform="translate(-30.634 -11.04)" fill="#d6d6d6"/>
    <path id="Path_4728" data-name="Path 4728" d="M17.336,7.344V24.037H11.513V21.961a6.155,6.155,0,0,1-5.336,2.575C2.267,24.536,0,22.262,0,18.081V7.344H5.826v9.532c0,2.208.906,3.112,2.723,3.112,1.918,0,2.965-1.071,2.965-3.276V7.344ZM39,15.673a11.463,11.463,0,0,1-.941,4.817A7.09,7.09,0,0,1,31.289,24.5a6.2,6.2,0,0,1-5.229-2.307v8.6H20.232V7.344h5.686V9.351a6.218,6.218,0,0,1,5.371-2.506,7.064,7.064,0,0,1,6.768,4.045A11.386,11.386,0,0,1,39,15.674Zm-6.206,0a6.286,6.286,0,0,0-.42-2.611,3.052,3.052,0,0,0-3-1.672c-2.2,0-3.383,1.337-3.383,3.812v.9c0,2.476,1.186,3.812,3.383,3.812a3.052,3.052,0,0,0,3-1.673,6.151,6.151,0,0,0,.419-2.574M68.337,7.344h5.791V8.849a3.62,3.62,0,0,1,3.28-1.974,3.134,3.134,0,0,1,3.418,3.245,3.166,3.166,0,0,1-3.081,3.248c-.088,0-.176,0-.264,0a2.985,2.985,0,0,1-2.723-1.505c-.489.2-.594.467-.594,1.638V24.032H68.339V7.344Zm30.931,7.091v9.6H93.442V22.061C92.291,23.6,90.51,24.5,87.686,24.5c-2.756,0-4.813-.933-5.686-2.809a4.991,4.991,0,0,1-.489-2.375,5.569,5.569,0,0,1,.419-2.274c1.256-2.609,4.641-3.211,8.894-3.211h2.616v-.268a3.667,3.667,0,0,0-.28-1.806q-.522-1.1-2.407-1.1c-1.358,0-2.127.336-2.476,1.07a2.927,2.927,0,0,0-.21,1H82.139a5.982,5.982,0,0,1,.524-2.34c1.151-2.442,4.117-3.546,8.024-3.546,4.219,0,6.7,1.07,7.849,3.477a10.174,10.174,0,0,1,.733,4.114m-6.145,4.582a3.663,3.663,0,0,0,.311-1.839v-.233H91.2c-1.673,0-3.034.166-3.417,1.036a1.518,1.518,0,0,0-.175.737,1.6,1.6,0,0,0,.173.8,2.365,2.365,0,0,0,2.3,1c1.568,0,2.581-.535,3.034-1.505M120.424.426V24.037H114.74V22.028a6.235,6.235,0,0,1-5.367,2.476,7.041,7.041,0,0,1-6.768-4.013,11.43,11.43,0,0,1-.943-4.818,11.394,11.394,0,0,1,.943-4.783,7.029,7.029,0,0,1,6.768-4.045,6.244,6.244,0,0,1,5.233,2.309V.422Zm-5.756,14.78c0-2.474-1.188-3.812-3.383-3.812a3.052,3.052,0,0,0-3,1.672,6.28,6.28,0,0,0-.42,2.61,6.446,6.446,0,0,0,.42,2.645,3.054,3.054,0,0,0,3,1.673c2.2,0,3.383-1.337,3.383-3.812Zm-59.5-3.732v4.3h3.757l-.14.56c-.467,1.871-2.8,3.127-4.684,3.127-2.62,0-6.013-1.21-6.013-6.976,0-4.775,2.184-7.058,5.523-7.058,1.827,0,3.234.415,4.082,1.634a4.217,4.217,0,0,1,.713,1.881h6.67A8,8,0,0,0,62.722,3.4c-.04-.042-.078-.078-.119-.116C60.576,1.175,57.528,0,53.753,0,46.051,0,41.08,4.916,41.08,12.524c0,8.8,6.3,11.918,11.7,11.918,3.028,0,5.756-.867,7.415-2.574l.078,2.166h5.219V11.475Z" transform="translate(0 -0.001)" fill="#ee2c3c"/>
  </g>
</svg>
